<svg width="174" height="30" viewBox="0 0 174 30" fill="none" xmlns="http://www.w3.org/2000/svg">
<path d="M21.92 22.312C21.088 22.312 20.424 22.088 19.928 21.64C19.432 21.192 19.184 20.504 19.184 19.576C19.184 19.272 19.184 18.976 19.184 18.688C19.2 18.384 19.208 18 19.208 17.536V11.872H17.216V10.816L19.352 10.552L19.976 7.336H21.416L21.272 10.6H24.512V11.872H21.248V19.312C21.248 19.92 21.368 20.368 21.608 20.656C21.848 20.928 22.168 21.064 22.568 21.064C22.84 21.064 23.096 21.008 23.336 20.896C23.592 20.784 23.872 20.624 24.176 20.416L24.752 21.04C24.096 21.888 23.152 22.312 21.92 22.312ZM25.7647 22V21.136L27.5647 20.8C27.5807 20.192 27.5887 19.536 27.5887 18.832C27.6047 18.112 27.6127 17.488 27.6127 16.96V6.424L25.6447 6.184V5.344L29.3167 4.264L29.6527 4.456L29.5567 7.864V12.496C30.1487 11.84 30.8367 11.312 31.6207 10.912C32.4047 10.496 33.1807 10.288 33.9487 10.288C34.9887 10.288 35.7567 10.64 36.2527 11.344C36.7647 12.032 37.0207 13.16 37.0207 14.728V16.96C37.0207 17.504 37.0207 18.128 37.0207 18.832C37.0367 19.536 37.0527 20.192 37.0687 20.8L38.7487 21.136V22H33.1807V21.136L34.9327 20.824C34.9487 20.216 34.9567 19.56 34.9567 18.856C34.9727 18.136 34.9807 17.504 34.9807 16.96V14.92C34.9807 13.816 34.8287 13.056 34.5247 12.64C34.2207 12.224 33.7167 12.016 33.0127 12.016C32.4207 12.016 31.8607 12.136 31.3327 12.376C30.8047 12.616 30.2367 13.016 29.6287 13.576V16.96C29.6287 17.488 29.6287 18.112 29.6287 18.832C29.6447 19.536 29.6607 20.192 29.6767 20.8L31.3327 21.136V22H25.7647ZM43.9948 11.392C43.5468 11.392 43.0907 11.52 42.6267 11.776C42.1788 12.032 41.7867 12.44 41.4507 13C41.1307 13.56 40.9227 14.304 40.8267 15.232H45.1947C45.7708 15.232 46.1468 15.112 46.3228 14.872C46.5148 14.632 46.6108 14.336 46.6108 13.984C46.6108 13.52 46.4908 13.096 46.2507 12.712C46.0267 12.312 45.7147 11.992 45.3147 11.752C44.9307 11.512 44.4908 11.392 43.9948 11.392ZM43.9707 22.312C42.3547 22.312 41.0587 21.792 40.0827 20.752C39.1067 19.696 38.6187 18.248 38.6187 16.408C38.6187 15.176 38.8667 14.104 39.3627 13.192C39.8747 12.28 40.5467 11.568 41.3787 11.056C42.2268 10.544 43.1467 10.288 44.1387 10.288C44.9708 10.288 45.7228 10.472 46.3948 10.84C47.0668 11.208 47.6028 11.736 48.0028 12.424C48.4028 13.096 48.6028 13.92 48.6028 14.896C48.6028 15.168 48.5868 15.424 48.5548 15.664C48.5228 15.888 48.4828 16.08 48.4348 16.24H40.7787C40.8107 17.712 41.1787 18.832 41.8827 19.6C42.5867 20.368 43.5148 20.752 44.6668 20.752C45.4348 20.752 46.0748 20.6 46.5867 20.296C47.0987 19.976 47.5707 19.568 48.0028 19.072L48.5787 19.528C48.1307 20.376 47.5227 21.056 46.7547 21.568C45.9868 22.064 45.0588 22.312 43.9707 22.312ZM53.8387 22V21.136L55.7347 20.8C55.7507 20.16 55.7587 19.52 55.7587 18.88C55.7747 18.24 55.7827 17.6 55.7827 16.96V11.872H53.7907V10.816L55.8307 10.552C55.9427 9.272 56.1187 8.24 56.3587 7.456C56.6147 6.656 57.0387 5.96 57.6307 5.368C58.1427 4.856 58.6787 4.504 59.2387 4.312C59.7987 4.12 60.3507 4.024 60.8947 4.024C61.4547 4.024 61.9507 4.128 62.3827 4.336C62.8147 4.528 63.0867 4.856 63.1987 5.32C63.1827 5.624 63.0467 5.88 62.7907 6.088C62.5347 6.296 62.1827 6.4 61.7347 6.4C61.1587 6.4 60.5827 6.16 60.0067 5.68L59.3347 5.152C59.2707 5.2 59.2067 5.248 59.1427 5.296C59.0947 5.344 59.0467 5.392 58.9987 5.44C58.5827 5.856 58.2627 6.488 58.0387 7.336C57.8307 8.168 57.7427 9.256 57.7747 10.6H61.0867V11.872H57.8227V16.96C57.8227 17.6 57.8227 18.24 57.8227 18.88C57.8387 19.504 57.8547 20.136 57.8707 20.776L60.0307 21.136V22H53.8387ZM66.4835 22.312C65.5555 22.312 64.6675 22.096 63.8195 21.664C62.9875 21.216 62.3075 20.552 61.7795 19.672C61.2515 18.776 60.9875 17.672 60.9875 16.36C60.9875 15.032 61.2515 13.92 61.7795 13.024C62.3075 12.112 62.9875 11.432 63.8195 10.984C64.6675 10.52 65.5555 10.288 66.4835 10.288C67.4115 10.288 68.2915 10.52 69.1235 10.984C69.9715 11.432 70.6595 12.112 71.1875 13.024C71.7315 13.92 72.0035 15.032 72.0035 16.36C72.0035 17.672 71.7315 18.776 71.1875 19.672C70.6595 20.552 69.9715 21.216 69.1235 21.664C68.2915 22.096 67.4115 22.312 66.4835 22.312ZM66.4835 21.232C67.5235 21.232 68.3235 20.824 68.8835 20.008C69.4435 19.176 69.7235 17.96 69.7235 16.36C69.7235 14.744 69.4435 13.512 68.8835 12.664C68.3235 11.816 67.5235 11.392 66.4835 11.392C65.4435 11.392 64.6435 11.816 64.0835 12.664C63.5395 13.512 63.2675 14.744 63.2675 16.36C63.2675 17.96 63.5395 19.176 64.0835 20.008C64.6435 20.824 65.4435 21.232 66.4835 21.232ZM72.8874 22V21.136L74.6154 20.824C74.6314 20.216 74.6394 19.56 74.6394 18.856C74.6554 18.136 74.6634 17.504 74.6634 16.96V15.808C74.6634 15.152 74.6554 14.608 74.6394 14.176C74.6394 13.744 74.6234 13.288 74.5914 12.808L72.6954 12.592V11.752L76.0554 10.288L76.4154 10.528L76.6794 13.36C77.0794 12.4 77.5914 11.648 78.2154 11.104C78.8554 10.56 79.4954 10.288 80.1354 10.288C80.5034 10.288 80.8474 10.368 81.1674 10.528C81.4874 10.688 81.7194 10.904 81.8634 11.176C81.8634 12.344 81.3914 12.928 80.4474 12.928C80.1754 12.928 79.9194 12.88 79.6794 12.784C79.4394 12.672 79.2074 12.52 78.9834 12.328L78.6954 12.064C78.2154 12.416 77.8154 12.848 77.4954 13.36C77.1754 13.872 76.9114 14.472 76.7034 15.16V16.96C76.7034 17.488 76.7034 18.104 76.7034 18.808C76.7194 19.512 76.7354 20.168 76.7514 20.776L78.7194 21.136V22H72.8874ZM87.1694 22.312C86.2414 22.312 85.3534 22.096 84.5054 21.664C83.6734 21.216 82.9934 20.552 82.4654 19.672C81.9374 18.776 81.6734 17.672 81.6734 16.36C81.6734 15.032 81.9374 13.92 82.4654 13.024C82.9934 12.112 83.6734 11.432 84.5054 10.984C85.3534 10.52 86.2414 10.288 87.1694 10.288C88.0974 10.288 88.9774 10.52 89.8094 10.984C90.6574 11.432 91.3454 12.112 91.8734 13.024C92.4174 13.92 92.6894 15.032 92.6894 16.36C92.6894 17.672 92.4174 18.776 91.8734 19.672C91.3454 20.552 90.6574 21.216 89.8094 21.664C88.9774 22.096 88.0974 22.312 87.1694 22.312ZM87.1694 21.232C88.2094 21.232 89.0094 20.824 89.5694 20.008C90.1294 19.176 90.4094 17.96 90.4094 16.36C90.4094 14.744 90.1294 13.512 89.5694 12.664C89.0094 11.816 88.2094 11.392 87.1694 11.392C86.1294 11.392 85.3294 11.816 84.7694 12.664C84.2254 13.512 83.9534 14.744 83.9534 16.36C83.9534 17.96 84.2254 19.176 84.7694 20.008C85.3294 20.824 86.1294 21.232 87.1694 21.232ZM93.5253 22V21.136L95.3013 20.8C95.3173 20.192 95.3253 19.536 95.3253 18.832C95.3413 18.128 95.3493 17.504 95.3493 16.96V15.808C95.3493 15.152 95.3413 14.608 95.3253 14.176C95.3253 13.744 95.3093 13.288 95.2773 12.808L93.3813 12.592V11.752L96.7413 10.288L97.1013 10.528L97.2933 12.472C97.8533 11.832 98.5093 11.312 99.2613 10.912C100.013 10.496 100.757 10.288 101.493 10.288C102.245 10.288 102.853 10.464 103.317 10.816C103.797 11.168 104.141 11.744 104.349 12.544C104.957 11.792 105.637 11.232 106.389 10.864C107.141 10.48 107.909 10.288 108.693 10.288C109.669 10.288 110.421 10.616 110.949 11.272C111.493 11.928 111.765 13 111.765 14.488V16.96C111.765 17.504 111.765 18.128 111.765 18.832C111.781 19.536 111.797 20.192 111.813 20.8L113.493 21.136V22H107.925V21.136L109.701 20.8C109.717 20.208 109.725 19.56 109.725 18.856C109.741 18.136 109.749 17.504 109.749 16.96V14.872C109.749 13.752 109.589 13 109.269 12.616C108.949 12.216 108.437 12.016 107.733 12.016C107.237 12.016 106.725 12.128 106.197 12.352C105.685 12.576 105.125 12.968 104.517 13.528C104.533 13.704 104.541 13.896 104.541 14.104C104.557 14.296 104.565 14.504 104.565 14.728V16.96C104.565 17.504 104.565 18.128 104.565 18.832C104.581 19.536 104.597 20.192 104.613 20.8L106.293 21.136V22H100.725V21.136L102.501 20.8C102.517 20.208 102.525 19.56 102.525 18.856C102.541 18.136 102.549 17.504 102.549 16.96V14.92C102.549 13.832 102.397 13.08 102.093 12.664C101.789 12.232 101.285 12.016 100.581 12.016C100.037 12.016 99.5173 12.128 99.0213 12.352C98.5253 12.576 97.9813 12.944 97.3893 13.456V16.96C97.3893 17.488 97.3893 18.112 97.3893 18.832C97.4053 19.536 97.4213 20.192 97.4373 20.8L99.0933 21.136V22H93.5253ZM121.24 15.328C121.24 16.608 121.352 17.808 121.576 18.928C121.8 20.032 122.176 21.152 122.704 22.288C123.248 23.44 123.992 24.696 124.936 26.056L124.312 26.608C122.616 25.024 121.36 23.296 120.544 21.424C119.728 19.552 119.32 17.52 119.32 15.328C119.32 13.136 119.728 11.104 120.544 9.232C121.36 7.36 122.616 5.632 124.312 4.048L124.936 4.6C123.992 5.96 123.248 7.216 122.704 8.368C122.176 9.504 121.8 10.632 121.576 11.752C121.352 12.856 121.24 14.048 121.24 15.328ZM125.052 22V21.136L126.852 20.824C126.868 20.216 126.876 19.56 126.876 18.856C126.892 18.136 126.9 17.504 126.9 16.96V6.424L124.932 6.184V5.344L128.604 4.264L128.94 4.456L128.844 7.864V12.136C129.42 11.496 130.012 11.032 130.62 10.744C131.244 10.44 131.884 10.288 132.54 10.288C133.388 10.288 134.156 10.52 134.844 10.984C135.532 11.448 136.076 12.12 136.476 13C136.892 13.88 137.1 14.944 137.1 16.192C137.1 17.424 136.884 18.504 136.452 19.432C136.02 20.344 135.428 21.056 134.676 21.568C133.94 22.064 133.1 22.312 132.156 22.312C131.596 22.312 131.036 22.192 130.476 21.952C129.916 21.712 129.372 21.264 128.844 20.608L128.652 22.24L125.052 22ZM131.892 11.656C131.524 11.656 131.1 11.752 130.62 11.944C130.14 12.136 129.572 12.504 128.916 13.048V19.624C129.412 20.088 129.9 20.424 130.38 20.632C130.86 20.84 131.324 20.944 131.772 20.944C132.62 20.944 133.356 20.576 133.98 19.84C134.62 19.088 134.94 17.936 134.94 16.384C134.94 14.848 134.652 13.68 134.076 12.88C133.516 12.064 132.788 11.656 131.892 11.656ZM143.44 11.392C142.992 11.392 142.536 11.52 142.072 11.776C141.624 12.032 141.232 12.44 140.896 13C140.576 13.56 140.368 14.304 140.272 15.232H144.64C145.216 15.232 145.592 15.112 145.768 14.872C145.96 14.632 146.056 14.336 146.056 13.984C146.056 13.52 145.936 13.096 145.696 12.712C145.472 12.312 145.16 11.992 144.76 11.752C144.376 11.512 143.936 11.392 143.44 11.392ZM143.416 22.312C141.8 22.312 140.504 21.792 139.528 20.752C138.552 19.696 138.064 18.248 138.064 16.408C138.064 15.176 138.312 14.104 138.808 13.192C139.32 12.28 139.992 11.568 140.824 11.056C141.672 10.544 142.592 10.288 143.584 10.288C144.416 10.288 145.168 10.472 145.84 10.84C146.512 11.208 147.048 11.736 147.448 12.424C147.848 13.096 148.048 13.92 148.048 14.896C148.048 15.168 148.032 15.424 148 15.664C147.968 15.888 147.928 16.08 147.88 16.24H140.224C140.256 17.712 140.624 18.832 141.328 19.6C142.032 20.368 142.96 20.752 144.112 20.752C144.88 20.752 145.52 20.6 146.032 20.296C146.544 19.976 147.016 19.568 147.448 19.072L148.024 19.528C147.576 20.376 146.968 21.056 146.2 21.568C145.432 22.064 144.504 22.312 143.416 22.312ZM152.938 22.312C152.106 22.312 151.442 22.088 150.946 21.64C150.45 21.192 150.202 20.504 150.202 19.576C150.202 19.272 150.202 18.976 150.202 18.688C150.218 18.384 150.226 18 150.226 17.536V11.872H148.234V10.816L150.37 10.552L150.994 7.336H152.434L152.29 10.6H155.53V11.872H152.266V19.312C152.266 19.92 152.386 20.368 152.626 20.656C152.866 20.928 153.186 21.064 153.586 21.064C153.858 21.064 154.114 21.008 154.354 20.896C154.61 20.784 154.89 20.624 155.194 20.416L155.77 21.04C155.114 21.888 154.17 22.312 152.938 22.312ZM164.607 22.24C164.031 22.24 163.551 22.072 163.167 21.736C162.783 21.4 162.543 20.952 162.447 20.392C161.791 21.032 161.215 21.512 160.719 21.832C160.223 22.152 159.623 22.312 158.919 22.312C158.039 22.312 157.279 22.064 156.639 21.568C156.015 21.056 155.703 20.304 155.703 19.312C155.703 18.848 155.807 18.416 156.015 18.016C156.239 17.616 156.639 17.224 157.215 16.84C157.791 16.456 158.615 16.072 159.687 15.688C160.055 15.56 160.479 15.424 160.959 15.28C161.439 15.136 161.919 15.008 162.399 14.896V14.296C162.399 13.128 162.223 12.352 161.871 11.968C161.519 11.584 160.943 11.392 160.143 11.392C159.967 11.392 159.767 11.4 159.543 11.416C159.335 11.432 159.103 11.472 158.847 11.536L158.391 13.096C158.167 13.864 157.751 14.248 157.143 14.248C156.471 14.248 156.095 13.92 156.015 13.264C156.239 12.352 156.767 11.632 157.599 11.104C158.447 10.56 159.479 10.288 160.695 10.288C161.959 10.288 162.895 10.608 163.503 11.248C164.111 11.872 164.415 12.944 164.415 14.464V19.576C164.415 20.088 164.495 20.456 164.655 20.68C164.815 20.888 165.023 20.992 165.279 20.992C165.487 20.992 165.663 20.944 165.807 20.848C165.951 20.752 166.087 20.624 166.215 20.464L166.695 20.992C166.407 21.456 166.087 21.784 165.735 21.976C165.399 22.152 165.023 22.24 164.607 22.24ZM157.839 18.952C157.839 19.592 158.023 20.048 158.391 20.32C158.759 20.592 159.215 20.728 159.759 20.728C159.999 20.728 160.223 20.696 160.431 20.632C160.655 20.568 160.919 20.448 161.223 20.272C161.527 20.08 161.919 19.808 162.399 19.456V15.784C161.983 15.896 161.575 16.024 161.175 16.168C160.775 16.296 160.447 16.408 160.191 16.504C159.503 16.776 158.991 17.056 158.655 17.344C158.319 17.632 158.095 17.912 157.983 18.184C157.887 18.456 157.839 18.712 157.839 18.952ZM169.93 15.328C169.93 14.048 169.818 12.856 169.594 11.752C169.37 10.632 168.986 9.504 168.442 8.368C167.914 7.216 167.178 5.96 166.234 4.6L166.858 4.048C168.554 5.632 169.81 7.36 170.626 9.232C171.442 11.104 171.85 13.136 171.85 15.328C171.85 17.52 171.442 19.552 170.626 21.424C169.81 23.296 168.554 25.024 166.858 26.608L166.234 26.056C167.178 24.696 167.914 23.44 168.442 22.288C168.986 21.152 169.37 20.032 169.594 18.928C169.818 17.808 169.93 16.608 169.93 15.328Z" fill="black"/>
<circle cx="6" cy="16" r="6" fill="black"/>
</svg>
